<svg width="2000" height="860" viewBox="0 0 2318 1279" fill="none" xmlns="http://www.w3.org/2000/svg">
<path d="M163 470L117 506.5V234L310.5 44.5H748.5L774.5 94H325L163 258V470Z" fill="#435B82" fill-opacity="0.3"/>
<path d="M2150.5 469.5L2196.5 506V233.5L2003 44H1565L1539 93.5H1988.5L2150.5 257.5V469.5Z" fill="#435B82" fill-opacity="0.3"/>
<path d="M319.5 1020.5L354.5 1059H179.5L117 996.5V727.5L163 764.5V970.5L213 1020.5H319.5Z" fill="#435B82" fill-opacity="0.3"/>
<path d="M1994 1021L1959 1059.5H2134L2196.5 997V728L2150.5 765V971L2100.5 1021H1994Z" fill="#435B82" fill-opacity="0.3"/>
<path d="M0 135V249L15 243V209L7 203V135L143 0H137L0 135Z" fill="#C2F2FB" fill-opacity="0.35"/>
<path d="M2318 135V249L2303 243V209L2311 203V135L2175 0H2181L2318 135Z" fill="#C2F2FB" fill-opacity="0.35"/>
<path d="M0 1144V1030L15 1036V1070L7 1076V1144L143 1279H137L0 1144Z" fill="#C2F2FB" fill-opacity="0.35"/>
<path d="M2318 1144V1030L2303 1036V1070L2311 1076V1144L2175 1279H2181L2318 1144Z" fill="#C2F2FB" fill-opacity="0.35"/>
<path d="M613 1279H140L130 1267H613L626 1251H685L697 1243H716V1234H888V1243H935V1254H888V1262H716V1254H697L689 1267H626L613 1279Z" fill="#C2F2FB" fill-opacity="0.35"/>
<path d="M1704 1279H2177L2187 1267H1704L1691 1251H1632L1620 1243H1601V1234H1429V1243H1382V1254H1429V1262H1601V1254H1620L1628 1267H1691L1704 1279Z" fill="#C2F2FB" fill-opacity="0.35"/>
<path d="M1017 59L961 5H1357L1305 59H1017Z" fill="#407180" fill-opacity="0.35"/>
<path d="M1471 1061V1046H1757L1857 945L1871 939L1930 881V851L1941 842V881L1763 1061H1471Z" fill="#C2F2FB" fill-opacity="0.35"/>
<path d="M859 1061V1046H573L473 945L459 939L400 881V851L389 842V881L567 1061H859Z" fill="#C2F2FB" fill-opacity="0.35"/>
<path d="M1683 187H1432V194H1509V202H1683L1920 441V558H1930V434L1683 187Z" fill="#C2F2FB" fill-opacity="0.35"/>
<path d="M649 187H900V194H823V202H649L412 441V558H402V434L649 187Z" fill="#C2F2FB" fill-opacity="0.35"/>
<path d="M897 190L943 232V426L1145 622" stroke="#407180" stroke-opacity="0.35" stroke-width="8"/>
<path d="M1435 190L1389 232V426L1187 622" stroke="#407180" stroke-opacity="0.35" stroke-width="8"/>
<path d="M1065 203L930.5 202L955 225H1089L1065 203Z" stroke="#407180" stroke-opacity="0.35" stroke-width="8"/>
<path d="M1266 203L1400.5 202L1376 225H1242L1266 203Z" stroke="#407180" stroke-opacity="0.35" stroke-width="8"/>
<circle cx="1159" cy="647" r="307.5" stroke="#17373E" stroke-opacity="0.5" stroke-width="41"/>
<circle cx="1159" cy="647" r="348" stroke="#17373E" stroke-opacity="0.5" stroke-width="12"/>
<path d="M406 643H1005" stroke="#407180" stroke-opacity="0.35" stroke-width="8"/>
<path d="M1324 643H1923" stroke="#407180" stroke-opacity="0.35" stroke-width="8"/>
<path d="M1013 1051H859V1061H1022L1044 1032H1027L1013 1051Z" fill="#407180" fill-opacity="0.35"/>
<path d="M1317 1051H1471V1061H1308L1286 1032H1303L1317 1051Z" fill="#407180" fill-opacity="0.35"/>
<path d="M1029 1025H1045V981.5H1035V925L1141 817V807.5L1029 921V1025Z" fill="#407180" fill-opacity="0.35"/>
<path d="M1301 1025H1285V981.5H1295V925L1189 817V807.5L1301 921V1025Z" fill="#407180" fill-opacity="0.35"/>
<path d="M1189 808H1141V816H1189V808Z" fill="#407180" fill-opacity="0.35"/>
<path d="M1183 820H1147V828H1183V820Z" fill="#407180" fill-opacity="0.35"/>
<path d="M1179 833H1151V841H1179V833Z" fill="#407180" fill-opacity="0.35"/>
<path d="M1174 846H1156V854H1174V846Z" fill="#407180" fill-opacity="0.35"/>
<circle cx="1165" cy="647" r="156.5" stroke="#C2F2FB" stroke-opacity="0.35" stroke-width="7"/>
<path d="M1129 754V745H1157V684.5C1135.4 681.7 1125 656.667 1122.5 644.5H1133C1134 653 1140 678 1165 678C1187.63 678 1195.67 654 1196 644.5H1207C1203.8 670.9 1181.67 682.167 1171 684.5V745H1200V754H1129Z" fill="#C2F2FB" fill-opacity="0.35"/>
<path d="M913 506C888.2 538.8 879.333 588.667 878 609.5H887.5C889.9 559.5 912.5 519.667 923.5 506H913Z" fill="#C2F2FB" fill-opacity="0.35"/>
<path d="M1416.5 506C1441.3 538.8 1450.17 588.667 1451.5 609.5H1442C1439.6 559.5 1417 519.667 1406 506H1416.5Z" fill="#C2F2FB" fill-opacity="0.35"/>
<path d="M1037.69 708.856C1058.01 744.609 1100.3 772.482 1118.9 781.949L1122.66 773.224C1077.69 751.238 1050.05 714.722 1041.85 699.213L1037.69 708.856Z" fill="#C2F2FB" fill-opacity="0.35"/>
<path d="M1294.64 707.237C1275.29 743.519 1233.75 772.51 1215.41 782.47L1211.42 773.849C1255.79 750.671 1282.44 713.43 1290.23 697.708L1294.64 707.237Z" fill="#C2F2FB" fill-opacity="0.35"/>
<circle cx="1165" cy="633" r="23.5" stroke="#407180" stroke-opacity="0.35" stroke-width="7"/>
</svg>
